<?xml version="1.0" standalone="no"?>
<!DOCTYPE svg PUBLIC "-//W3C//DTD SVG 20010904//EN"
 "http://www.w3.org/TR/2001/REC-SVG-20010904/DTD/svg10.dtd">
<svg version="1.0" xmlns="http://www.w3.org/2000/svg"
 width="381.000000pt" height="377.000000pt" viewBox="0 0 381.000000 377.000000"
 preserveAspectRatio="xMidYMid meet">

<g transform="translate(0.000000,377.000000) scale(0.100000,-0.100000)"
fill="#000000" stroke="none">
<path d="M1725 3740 c-267 -29 -598 -148 -829 -298 -210 -138 -435 -346 -542
-502 -292 -425 -393 -978 -269 -1465 92 -358 241 -619 527 -921 37 -39 65 -74
61 -78 -4 -4 0 -4 10 0 10 3 17 1 17 -6 0 -10 35 -49 171 -188 44 -46 120
-112 128 -112 3 0 29 -20 56 -45 66 -60 62 -57 128 -93 l58 -32 1084 0 c932 0
1084 2 1088 14 3 8 1 17 -6 19 -7 3 1 10 17 16 16 7 43 25 59 41 17 16 34 27
38 24 5 -3 14 6 21 20 6 14 18 26 27 27 12 0 11 3 -4 8 -17 7 -16 9 13 16 22
4 36 15 42 31 5 13 14 24 19 24 5 0 27 19 48 41 21 23 57 60 81 82 l42 40 0
909 0 908 -25 38 c-13 20 -42 91 -63 157 -68 210 -207 474 -328 622 -175 215
-393 393 -619 506 -182 91 -348 146 -550 183 -97 18 -389 26 -500 14z m20
-106 c-77 -7 -141 -11 -143 -9 -8 7 128 22 203 23 70 0 62 -2 -60 -14z m318
-1 c-13 -2 -33 -2 -45 0 -13 2 -3 4 22 4 25 0 35 -2 23 -4z m114 -9 c-3 -3
-12 -4 -19 -1 -8 3 -5 6 6 6 11 1 17 -2 13 -5z m-600 -10 c-3 -3 -12 -4 -19
-1 -8 3 -5 6 6 6 11 1 17 -2 13 -5z m650 0 c-3 -3 -12 -4 -19 -1 -8 3 -5 6 6
6 11 1 17 -2 13 -5z m-804 -39 c-227 -70 -476 -201 -631 -333 -34 -29 -67 -50
-72 -47 -6 4 -9 2 -8 -3 2 -6 -35 -45 -82 -88 -66 -60 -74 -66 -35 -24 28 30
53 56 58 58 4 2 7 8 7 13 0 6 -6 7 -12 3 -7 -4 -5 2 4 12 17 20 17 21 -4 44
-17 18 -18 22 -5 17 10 -4 17 -2 18 6 0 7 16 25 36 42 34 28 36 28 49 10 12
-17 14 -17 20 -1 4 11 13 15 26 10 16 -5 19 -3 12 7 -6 12 -5 12 9 0 14 -11
20 -11 32 -1 14 11 13 14 -2 25 -15 11 -15 13 3 22 10 6 27 9 37 8 15 -3 16
-1 6 11 -6 7 -16 11 -23 7 -7 -4 -6 -1 1 9 7 8 10 18 6 21 -3 4 3 10 13 14 10
4 29 17 42 30 13 13 28 21 33 18 5 -4 9 -2 9 4 0 6 14 9 30 7 17 -2 30 1 30 6
0 5 5 6 12 2 7 -5 8 -3 4 5 -5 7 -15 10 -25 6 -10 -4 -13 -3 -6 4 6 5 27 13
48 16 32 6 37 5 37 -11 1 -18 1 -18 11 -1 10 18 11 18 25 0 16 -22 18 -10 3
20 -9 18 -9 20 1 10 7 -6 20 -9 29 -6 12 4 13 3 3 -5 -9 -6 -3 -9 20 -9 18 0
25 2 16 4 -10 3 -18 9 -18 15 0 5 7 7 16 4 8 -3 12 -2 9 4 -8 13 1 13 27 -1
15 -8 19 -8 14 0 -14 22 21 41 64 36 37 -5 41 -3 36 11 -5 13 -3 14 6 6 13
-10 113 0 126 13 3 3 15 5 26 5 12 -1 -29 -16 -91 -35z m712 -34 c29 -7 15 -8
-51 -4 -97 6 -164 -7 -164 -33 0 -8 -7 -14 -15 -14 -16 0 -15 3 23 45 10 11
10 15 1 15 -13 0 -49 -38 -49 -52 0 -4 -5 -8 -10 -8 -7 0 -7 6 0 19 14 27 15
26 -29 26 -30 1 -41 -3 -44 -17 -3 -10 -1 -18 3 -18 5 0 11 8 13 18 3 10 5 6
6 -10 0 -16 -4 -28 -10 -28 -5 0 -7 -4 -4 -10 3 -5 -2 -10 -12 -10 -15 0 -16
-2 -3 -10 12 -8 9 -10 -13 -10 -16 0 -26 4 -22 10 9 14 -8 13 -23 -2 -9 -9
-15 -9 -24 0 -9 9 -16 4 -30 -19 -14 -23 -23 -29 -38 -24 -13 4 -20 2 -20 -7
-1 -9 -5 -7 -14 5 -13 16 -14 16 -20 -5 -4 -13 -10 -18 -12 -12 -5 12 -44 7
-44 -5 0 -7 -22 -7 -55 -1 -5 1 1 6 15 10 l25 8 -27 1 c-18 1 -28 -4 -28 -13
0 -8 -5 -18 -12 -22 -7 -4 -8 -3 -4 4 11 19 -5 14 -20 -5 -7 -10 -14 -13 -14
-7 0 6 9 21 20 34 25 29 25 31 -4 17 -13 -6 -22 -16 -19 -22 5 -14 -42 -40
-56 -31 -6 4 -11 1 -11 -7 0 -8 -7 -17 -15 -21 -8 -3 -15 -13 -15 -21 0 -9 4
-14 9 -11 4 3 6 -7 3 -22 -3 -16 -7 -21 -9 -12 -12 41 -13 43 -27 31 -9 -8
-15 -8 -18 -1 -3 10 -49 -1 -90 -21 -21 -11 -36 9 -17 23 11 7 10 8 -5 6 -22
-3 -31 -38 -10 -38 8 0 14 -3 14 -8 0 -12 -39 -32 -45 -23 -3 5 1 12 7 14 8 3
6 6 -4 6 -10 1 -18 -5 -19 -11 0 -10 -2 -10 -6 0 -2 6 -9 12 -14 12 -15 0 1
-27 24 -39 21 -11 21 -11 -3 -5 -14 4 -28 12 -32 18 -5 7 -8 6 -8 -3 0 -8 -3
-11 -6 -8 -4 3 -16 2 -28 -4 -19 -9 -20 -9 -3 4 16 14 16 15 0 28 -11 9 -14
10 -9 2 4 -8 2 -13 -5 -13 -7 0 -21 -7 -31 -17 -10 -9 -28 -21 -41 -28 -12 -6
-21 -17 -20 -23 4 -18 -15 -14 -25 4 -8 15 -11 14 -28 -3 -10 -10 -40 -36 -67
-57 -26 -21 -44 -42 -41 -48 5 -7 2 -8 -5 -3 -24 14 -183 -160 -270 -294 -55
-86 -62 -90 -20 -13 68 126 233 306 410 448 42 34 133 93 201 132 210 120 350
170 583 206 55 9 111 18 125 20 38 7 310 -3 355 -13z m-290 -61 c3 -5 1 -10
-4 -10 -6 0 -11 5 -11 10 0 6 2 10 4 10 3 0 8 -4 11 -10z m-140 -60 c-4 -12
-2 -27 4 -34 9 -10 8 -15 -3 -19 -9 -4 -18 -2 -22 4 -3 6 -12 8 -20 5 -8 -3
-14 -1 -14 3 0 11 27 22 33 13 2 -4 2 -1 1 6 -5 17 6 42 18 42 5 0 6 -9 3 -20z
m45 -2 c0 -4 -9 -8 -21 -8 -11 0 -18 4 -15 8 3 5 12 9 21 9 8 0 15 -4 15 -9z
m7 -44 c-3 -3 -12 -4 -19 -1 -8 3 -5 6 6 6 11 1 17 -2 13 -5z m33 -8 c0 -2 -7
-7 -16 -10 -8 -3 -12 -2 -9 4 6 10 25 14 25 6z m-36 -41 c-4 -8 -11 -15 -16
-15 -6 0 -5 6 2 15 7 8 14 15 16 15 2 0 1 -7 -2 -15z m-914 -9 c0 -3 -4 -8
-10 -11 -5 -3 -10 -1 -10 4 0 6 5 11 10 11 6 0 10 -2 10 -4z m995 -6 c3 -6 -1
-7 -9 -4 -18 7 -21 14 -7 14 6 0 13 -4 16 -10z m130 -11 c56 -14 130 -77 145
-125 14 -41 6 -126 -15 -164 -7 -14 -40 -41 -72 -60 l-58 -35 2 -1363 3 -1363
-47 3 -47 3 -1 780 c-1 429 -3 1042 -3 1361 l-2 582 -25 6 c-39 10 -92 63
-110 110 -17 43 -17 178 0 194 4 4 4 -4 1 -18 -7 -24 -6 -24 8 -6 9 11 16 25
16 32 0 6 6 17 14 24 8 6 12 19 9 28 -4 13 -3 14 5 3 8 -11 17 -11 53 2 55 19
69 20 124 6z m-711 -36 c-4 -22 -3 -25 5 -13 9 12 11 10 11 -12 0 -16 -5 -28
-11 -28 -5 0 -7 5 -4 10 3 6 1 10 -4 10 -15 0 -14 -30 2 -31 6 -1 35 -1 64 1
122 5 188 -86 153 -212 -12 -40 -44 -70 -66 -61 -12 4 -14 -35 -14 -239 l0
-243 111 -110 c105 -104 221 -242 249 -294 8 -15 13 -76 13 -175 2 -139 0
-156 -23 -216 l-25 -65 4 -688 4 -687 -52 1 -51 2 -1 381 c0 210 -2 514 -5
676 l-5 295 -212 212 -212 211 -163 -5 -164 -6 -9 -26 c-34 -88 -167 -137
-262 -97 -38 15 -94 76 -113 122 -38 90 3 206 88 250 15 8 55 14 90 14 103 -1
167 -41 203 -127 l14 -33 185 0 185 0 127 -134 c70 -74 158 -161 196 -193 74
-62 158 -117 143 -93 -11 17 -23 111 -33 252 -8 114 27 67 -297 396 -115 117
-210 218 -210 224 0 6 12 12 27 14 21 2 34 -6 57 -32 25 -31 29 -33 35 -17 4
9 9 108 12 218 l6 200 -46 27 c-58 34 -76 85 -56 151 8 23 13 49 11 59 -1 9 4
20 10 24 9 5 10 2 5 -11 -6 -18 -6 -18 15 1 18 16 19 20 5 22 -9 2 -16 8 -16
14 0 6 -8 2 -17 -9 -10 -10 -15 -14 -10 -9 13 18 7 29 -8 16 -8 -7 -15 -9 -15
-4 0 5 -4 3 -9 -5 -6 -9 -8 -5 -8 13 0 15 4 29 10 33 6 4 8 0 4 -10 -3 -9 -1
-19 5 -23 6 -4 8 -3 5 2 -3 6 -2 16 4 24 5 8 9 10 9 4 0 -6 7 -11 15 -11 8 0
15 7 15 15 0 10 -8 13 -25 10 -14 -3 -28 -2 -30 3 -7 10 32 22 44 14 6 -3 16
1 23 9 18 21 19 20 12 -11z m501 -2 c7 -12 -12 -24 -25 -16 -11 7 -4 25 10 25
5 0 11 -4 15 -9z m822 -93 c55 -57 67 -120 36 -185 -9 -20 -29 -43 -44 -52
l-28 -17 -4 -190 c-2 -104 -2 -195 0 -201 8 -24 23 -13 58 42 19 30 44 59 56
65 20 11 75 5 83 -9 9 -13 -76 -105 -223 -242 -79 -74 -187 -182 -241 -240
l-96 -106 3 -144 c2 -79 0 -150 -4 -156 -5 -7 -23 -15 -39 -19 l-31 -6 -6 69
c-11 110 -8 282 4 306 14 26 130 155 257 286 l92 95 0 227 0 227 -23 6 c-12 3
-36 19 -52 36 -26 28 -30 38 -30 95 0 101 43 145 146 145 49 0 58 -3 86 -32z
m-1587 11 c0 -5 -4 -7 -10 -4 -5 3 -10 1 -10 -6 0 -7 -3 -10 -6 -6 -8 7 4 27
17 27 5 0 9 -5 9 -11z m140 1 c0 -5 -5 -10 -11 -10 -5 0 -7 5 -4 10 3 6 8 10
11 10 2 0 4 -4 4 -10z m-248 -37 c-6 -3 -10 -9 -6 -14 3 -5 0 -9 -5 -9 -15 0
-14 27 2 33 6 2 14 2 17 -1 3 -2 -1 -7 -8 -9z m316 -28 c-6 -14 -13 -23 -16
-21 -7 7 9 46 18 46 5 0 4 -11 -2 -25z m-408 -45 c0 -5 -5 -10 -11 -10 -5 0
-7 5 -4 10 3 6 8 10 11 10 2 0 4 -4 4 -10z m207 -285 c40 -11 73 -62 73 -111
0 -98 -49 -154 -136 -154 -45 0 -57 4 -82 30 -42 41 -56 88 -43 138 13 46 53
90 90 98 14 3 31 7 36 9 10 3 24 1 62 -10z m2017 -24 c13 -11 16 -35 16 -122
0 -108 0 -110 -26 -119 -14 -6 -52 -10 -84 -10 -52 0 -64 4 -94 30 -19 17 -41
50 -49 75 -14 40 -14 46 5 84 27 55 84 83 160 78 31 -2 63 -9 72 -16z m-2315
-100 c12 -8 12 -15 0 -48 -12 -31 -20 -39 -46 -41 -27 -3 -32 0 -38 27 -9 41
9 71 43 71 15 0 33 -4 41 -9z m2527 -13 c-3 -13 -6 -30 -6 -39 0 -20 -26 -32
-51 -24 -14 5 -19 16 -19 40 0 35 9 41 59 44 20 1 22 -3 17 -21z m27 -419 c74
-38 124 -132 114 -216 -5 -49 -44 -113 -89 -146 -30 -22 -108 -33 -163 -23
-42 8 -106 62 -128 109 l-16 33 -161 -3 -161 -3 -187 -180 c-103 -99 -198
-185 -212 -192 l-25 -11 0 -688 c0 -630 -1 -688 -16 -684 -9 3 -28 1 -42 -4
l-25 -10 -4 353 c-1 194 -1 517 0 719 4 353 5 366 23 372 11 4 114 101 230
216 l209 210 187 -2 187 -1 12 42 c25 83 79 120 177 120 38 0 78 -5 90 -11z
m398 -536 l-10 -48 4 49 c3 27 6 110 7 185 l2 136 3 -137 c2 -76 -1 -159 -6
-185z m-14 -90 c-3 -10 -5 -4 -5 12 0 17 2 24 5 18 2 -7 2 -21 0 -30z m-2789
13 c36 -19 68 -54 82 -90 l11 -29 141 6 142 6 92 -92 91 -92 -6 -135 c-4 -74
-7 -312 -7 -527 1 -216 0 -393 -2 -393 -12 0 -78 33 -84 43 -5 7 -8 230 -7
497 l0 485 -58 57 -58 58 -127 0 -127 0 -17 -29 c-22 -38 -82 -71 -128 -71
-140 0 -217 178 -118 273 49 47 126 61 180 33z m2285 -15 c38 -21 70 -85 69
-137 -2 -146 -173 -206 -264 -93 l-32 40 -135 -5 -135 -6 -36 -38 c-19 -21
-43 -43 -52 -48 -16 -8 -17 -51 -20 -508 l-4 -499 -84 -38 c-47 -20 -98 -40
-115 -44 -16 -3 0 6 38 21 l67 26 0 532 0 531 83 83 83 83 162 2 162 2 0 24
c0 28 59 87 92 94 34 6 89 -4 121 -22z m467 -158 c-52 -199 -107 -324 -202
-466 -181 -271 -408 -475 -678 -612 -91 -46 -64 -21 43 40 423 241 717 613
828 1049 18 70 35 123 37 118 2 -6 -11 -64 -28 -129z m-2570 -301 c93 -49 96
-216 5 -272 -87 -54 -199 6 -220 117 -5 26 0 47 17 81 41 84 122 114 198 74z
m1926 -17 c48 -37 68 -85 59 -144 -11 -76 -66 -131 -130 -131 -38 0 -100 35
-127 72 -18 26 -23 46 -23 95 0 55 3 65 30 93 17 18 39 36 50 41 35 16 103 3
141 -26z"/>
<path d="M1067 3503 c-4 -3 -7 -11 -7 -17 0 -6 5 -5 12 2 6 6 9 14 7 17 -3 3
-9 2 -12 -2z"/>
<path d="M965 3430 c27 -12 43 -12 25 0 -8 5 -22 9 -30 9 -10 0 -8 -3 5 -9z"/>
<path d="M946 3411 c-3 -5 1 -12 10 -15 27 -11 37 -7 24 9 -14 17 -26 19 -34
6z"/>
<path d="M884 3395 c3 -20 16 -31 17 -14 0 8 4 6 9 -6 8 -18 9 -17 9 8 1 20
-4 27 -18 27 -11 0 -18 -6 -17 -15z"/>
<path d="M712 3274 c-29 -20 -15 -42 16 -25 14 8 23 8 27 1 4 -6 3 -10 -2 -9
-18 3 -32 -2 -47 -17 -15 -14 -16 -14 -16 0 0 21 -16 21 -24 0 -8 -21 -9 -21
17 -18 12 1 30 3 40 3 10 1 15 6 12 11 -3 6 0 10 8 10 8 0 27 10 41 21 21 16
24 24 15 30 -18 11 -29 2 -22 -17 5 -14 3 -15 -15 -5 -11 6 -22 15 -24 21 -2
6 -13 4 -26 -6z m28 -8 c0 -2 -7 -6 -15 -10 -8 -3 -15 -1 -15 4 0 6 7 10 15
10 8 0 15 -2 15 -4z"/>
<path d="M679 3173 c-13 -16 -12 -17 4 -4 9 7 17 15 17 17 0 8 -8 3 -21 -13z"/>
<path d="M1765 3517 c-4 -10 -3 -23 4 -30 16 -16 23 -3 12 24 -8 22 -10 22
-16 6z"/>
<path d="M1524 3465 c11 -8 23 -20 26 -25 4 -7 11 -5 20 5 11 13 10 15 -4 9
-9 -3 -16 -2 -16 4 0 5 -10 12 -22 15 -22 6 -22 6 -4 -8z"/>
<path d="M1660 3459 c0 -5 5 -7 10 -4 6 3 10 8 10 11 0 2 -4 4 -10 4 -5 0 -10
-5 -10 -11z"/>
<path d="M1530 3410 c-8 -5 -12 -11 -9 -14 2 -3 11 -1 19 4 8 5 12 11 9 14 -2
3 -11 1 -19 -4z"/>
<path d="M1302 3360 c-13 -10 -24 -23 -25 -27 -1 -4 -10 -8 -19 -7 -10 0 -18
-3 -18 -8 0 -15 42 -8 67 12 14 11 20 20 13 20 -10 0 -10 3 0 15 17 20 10 18
-18 -5z"/>
<path d="M1105 3320 c-3 -6 1 -7 9 -4 18 7 21 14 7 14 -6 0 -13 -4 -16 -10z"/>
<path d="M1176 3307 c3 -10 9 -15 12 -12 3 3 0 11 -7 18 -10 9 -11 8 -5 -6z"/>
<path d="M1024 3279 c-3 -6 -1 -16 6 -22 10 -9 11 -9 5 2 -4 8 -2 17 6 22 9 6
10 9 2 9 -6 0 -15 -5 -19 -11z"/>
<path d="M960 3235 c-7 -9 -10 -18 -6 -22 3 -3 6 -1 6 6 0 7 4 10 9 7 5 -3 11
1 15 9 7 19 -8 19 -24 0z"/>
<path d="M909 3193 c-13 -16 -12 -17 4 -4 9 7 17 15 17 17 0 8 -8 3 -21 -13z"/>
<path d="M1853 3178 c-44 -49 -46 -64 -17 -114 29 -49 55 -64 110 -64 45 0 74
44 74 112 0 38 -5 50 -26 67 -38 30 -113 29 -141 -1z"/>
<path d="M1296 3094 c-33 -32 -5 -94 43 -94 33 0 55 72 29 98 -17 17 -54 15
-72 -4z"/>
<path d="M614 2143 c-27 -4 -32 -9 -43 -52 -26 -103 25 -173 113 -157 46 9 76
53 76 113 0 55 -7 71 -41 88 -27 15 -43 16 -105 8z"/>
<path d="M2433 3103 c-33 -13 10 -93 50 -93 27 0 41 9 55 36 18 33 -10 64 -56
63 -20 0 -43 -3 -49 -6z"/>
<path d="M890 2690 c0 -19 40 -70 55 -70 23 0 40 40 23 55 -19 19 -78 30 -78
15z"/>
<path d="M3123 2140 c-31 -13 -63 -68 -63 -108 0 -25 9 -43 34 -68 38 -38 70
-43 115 -19 39 19 75 94 62 126 -22 57 -96 91 -148 69z"/>
<path d="M741 1516 c-7 -8 -11 -30 -9 -48 6 -60 90 -77 105 -21 9 39 -16 77
-53 81 -18 2 -36 -3 -43 -12z"/>
<path d="M3006 1514 c-22 -21 -20 -67 2 -87 23 -21 76 -22 96 -1 22 21 20 67
-2 87 -23 21 -76 22 -96 1z"/>
<path d="M924 1045 c-29 -29 -31 -58 -4 -85 26 -26 46 -25 75 5 29 28 31 42
10 72 -23 32 -54 35 -81 8z"/>
<path d="M2799 1103 c-13 -16 -12 -17 4 -4 9 7 17 15 17 17 0 8 -8 3 -21 -13z"/>
<path d="M2847 1042 c-22 -24 -21 -65 1 -85 24 -22 34 -21 66 4 30 24 34 59 8
82 -24 22 -55 21 -75 -1z"/>
</g>
</svg>
